<?xml version="1.0" encoding="UTF-8"?>
<svg fill="none" viewBox="0 0 112 29" xmlns="http://www.w3.org/2000/svg">
<path d="m24.275 5.3338c1.574 2.006 0.8437 5.8454 0.1215 7.6839 0.0067 0.0022 0.0133 0.0044 0.02 0.0066l-0.0148 5e-4 -1.7523-0.1166c0-0.0029-2e-4 -0.0069 0-0.0089 0.3412-3.9656-0.0515-5.5536-0.4343-5.8225-4.5831 3.3128-8.6768 2.2598-9.9422 1.9343-0.3445-0.08861-0.4793-0.1233-0.3573-0.00123 0.372 0.37197 1.2184 0.81833 1.8219 1.1366h1e-4l4e-4 2e-4c0.1367 0.0721 0.2609 0.1376 0.3643 0.1942-4.9752 0.0575-6.9753-2.3381-7.5634-3.0424-0.05996-0.07182-0.10525-0.12606-0.1375-0.15831-0.28697-0.28697-1.9014-1.2676-2.4085 0.60212-0.49114 1.8111-0.1801 3.9352-0.01591 5.0565 0.01424 0.0972 0.01592 0.0993 0.01592 0.131l-1.6162 0.095-0.00422-1e-4c-2.1486-4.9694-0.53359-7.755 0.92323-8.8001 0-2.4402 2.9789-4.817 6.7501-3.9613 4.8313 1.3772 6.3013 0.92083 8.0304 0.38402 0.6981-0.21672 1.4384-0.44655 2.4592-0.57415 4.6868-0.58586 6.2642 2.493 6.4649 4.0881-0.7859-0.45635-2.1444 0.57043-2.7254 1.1726zm-11.937-3.7466c-1.2149-0.42254-4.3448-0.86999-5.9896 0.82396-0.36383 0.37471-0.79226 1.0775-0.79226 1.0775s-0.72889 1.331-1.2993 0.76055c-0.57043-0.57041 0.76058-2.2817 1.8064-2.7888 1.0458-0.50705 3.6444-1.3944 6.2748 0.12676z" clip-rule="evenodd" fill="#754FFE" fill-rule="evenodd"/>
<path d="m10.078 13.5h-6.972c-0.87511 0-1.5845 0.7095-1.5845 1.5846v3.2324c0 0.8751 0.70942 1.5846 1.5845 1.5846h6.972c0.8751 0 1.5845-0.7095 1.5845-1.5846v-3.2324c0-0.8751-0.7094-1.5846-1.5845-1.5846z" stroke="#754FFE" stroke-width="1.2676"/>
<path d="m0.82351 14.609h-0.44367c-0.19252 0-0.3486 0.156-0.3486 0.3486v1.0141c0 0.1925 0.15607 0.3486 0.3486 0.3486h0.44367c0.19253 0 0.3486-0.1561 0.3486-0.3486v-1.0141c0-0.1926-0.15607-0.3486-0.3486-0.3486z" fill="#754FFE" stroke="#754FFE" stroke-width=".063381"/>
<path d="m16.733 13.5h6.9719c0.8751 0 1.5846 0.7095 1.5846 1.5846v3.2324c0 0.8751-0.7095 1.5846-1.5846 1.5846h-6.9719c-0.8751 0-1.5845-0.7095-1.5845-1.5846v-3.2324c0-0.8751 0.7094-1.5846 1.5845-1.5846z" stroke="#754FFE" stroke-width="1.2676"/>
<path d="m25.986 14.609h0.4436c0.1925 0 0.3486 0.156 0.3486 0.3486v1.0141c0 0.1925-0.1561 0.3486-0.3486 0.3486h-0.4436c-0.1926 0-0.3486-0.1561-0.3486-0.3486v-1.0141c0-0.1926 0.156-0.3486 0.3486-0.3486z" fill="#754FFE" stroke="#754FFE" stroke-width=".063381"/>
<path d="m12.295 15.56h2.2183c0.1925 0 0.3486 0.156 0.3486 0.3486v1.0141c0 0.1925-0.1561 0.3485-0.3486 0.3485h-2.2183c-0.1926 0-0.3486-0.156-0.3486-0.3485v-1.0141c0-0.1926 0.156-0.3486 0.3486-0.3486z" fill="#754FFE" stroke="#754FFE" stroke-width=".063381"/>
<path d="m9.9334 16.394c0 0.315-0.17026 0.5704-0.38029 0.5704s-0.38029-0.2554-0.38029-0.5704c0-0.3151 0.17026-0.5705 0.38029-0.5705s0.38029 0.2554 0.38029 0.5705z" fill="#754FFE"/>
<path d="m16.969 16.394c0 0.315 0.1702 0.5704 0.3803 0.5704 0.21 0 0.3802-0.2554 0.3802-0.5704 0-0.3151-0.1702-0.5705-0.3802-0.5705-0.2101 0-0.3803 0.2554-0.3803 0.5705z" fill="#754FFE"/>
<path d="m14.276 20.102c-0.6338 0.507-1.4895 0.2535-1.7113 0 0.0633 0.3169 0.3042 0.7606 0.8873 0.7606s0.7923-0.5071 0.824-0.7606z" fill="#754FFE"/>
<path d="m12.131 22.411c0.0263-0.1196 0.1447-0.1953 0.2644-0.1689l2.2391 0.4929c0.1197 0.0264 0.1953 0.1447 0.1689 0.2644-0.0263 0.1196-0.1446 0.1953-0.2643 0.1689l-2.2391-0.493c-0.1197-0.0263-0.1953-0.1446-0.169-0.2643z" clip-rule="evenodd" fill="#754FFE" fill-rule="evenodd"/>
<path d="m13.42 27.675c-4.4113 0.0507-7.648-4.0141-8.7149-6.0529-0.15845-0.3028-0.2852-0.3486-0.38027-0.2852-0.15212 0.1014-0.04227 0.3064-2e-5 0.412 0.5324 1.2423 1.2571 2.2923 1.5528 2.662-1.0394 1.724-1.3838 3.4437-1.4261 4.0881 1.724-1.6986 3.4648-1.6162 4.1198-1.3627 5.1339 2.662 7.9861 0.7923 9.6023 0 1.293-0.6338 3.3064 0.6021 4.1515 1.2993-0.1014-1.5718-0.9507-3.2958-1.3627-3.9613 0.6655-0.8874 1.2042-1.9648 1.4895-2.5036 0.2281-0.431 0.1584-0.6021 0.095-0.6338-0.1521-0.076-0.338 0.1585-0.4119 0.2852-0.4754 0.7923-3.2008 5.9896-8.715 6.0529z" fill="#754FFE"/>
<path d="m45.273 10.861h4.375c-0.5568-4.027-4.1065-6.8608-8.7102-6.8608-5.3793 0-9.5256 3.8778-9.5256 10.48 0 6.4432 3.8779 10.44 9.6151 10.44 5.1406 0 8.8096-3.2515 8.8096-8.6108v-2.5654h-8.5213v3.2415h4.375c-0.0596 2.5256-1.7798 4.1264-4.6434 4.1264-3.2316 0-5.2699-2.4162-5.2699-6.6718 0-4.2359 2.1179-6.6322 5.2301-6.6322 2.2173 0 3.7187 1.1435 4.2656 3.0526z" fill="#18113C"/>
<path d="m58.832 24.94c3.7785 0 6.3239-1.8395 6.9205-4.6733l-3.9176-0.2586c-0.4276 1.1634-1.5213 1.7699-2.9333 1.7699-2.1179 0-3.4602-1.402-3.4602-3.679v-0.0099h10.401v-1.1634c0-5.1903-3.1421-7.7556-7.179-7.7556-4.4943 0-7.4077 3.1917-7.4077 7.9048 0 4.8423 2.8736 7.8651 7.5767 7.8651zm-3.3906-9.4759c0.0895-1.7401 1.412-3.1321 3.2912-3.1321 1.8395 0 3.1122 1.3125 3.1222 3.1321h-6.4134z" fill="#18113C"/>
<path d="m74.446 24.94c3.7784 0 6.3239-1.8395 6.9205-4.6733l-3.9176-0.2586c-0.4276 1.1634-1.5213 1.7699-2.9333 1.7699-2.1179 0-3.4602-1.402-3.4602-3.679v-0.0099h10.401v-1.1634c0-5.1903-3.1421-7.7556-7.179-7.7556-4.4943 0-7.4077 3.1917-7.4077 7.9048 0 4.8423 2.8736 7.8651 7.5767 7.8651zm-3.3906-9.4759c0.0895-1.7401 1.4119-3.1321 3.2912-3.1321 1.8395 0 3.1122 1.3125 3.1221 3.1321h-6.4133z" fill="#18113C"/>
<path d="m83.1 24.642h4.2358v-4.8523l1.1434-1.3026 4.1662 6.1549h4.9617l-5.956-8.6606 5.6676-6.6122h-4.8622l-4.892 5.7969h-0.2287v-10.888h-4.2358v20.364z" fill="#18113C"/>
<path d="m110.98 13.724c-0.378-2.8138-2.645-4.5539-6.503-4.5539-3.907 0-6.4827 1.8097-6.4727 4.7528-0.01 2.2869 1.4318 3.7685 4.4147 4.3651l2.645 0.527c1.332 0.2684 1.939 0.7556 1.959 1.5213-0.02 0.9048-1.005 1.5511-2.486 1.5511-1.511 0-2.516-0.6463-2.774-1.8892l-4.1664 0.2187c0.3977 2.9233 2.8834 4.7231 6.9304 4.7231 3.957 0 6.791-2.0185 6.801-5.0313-0.01-2.2074-1.452-3.5298-4.415-4.1364l-2.764-0.5568c-1.422-0.3082-1.949-0.7954-1.939-1.5312-0.01-0.9148 1.024-1.5114 2.337-1.5114 1.471 0 2.346 0.8054 2.555 1.7898l3.878-0.2387z" fill="#18113C"/>
</svg>
